<?xml version="1.0" standalone="no"?>
<!DOCTYPE svg PUBLIC "-//W3C//DTD SVG 20010904//EN"
 "http://www.w3.org/TR/2001/REC-SVG-20010904/DTD/svg10.dtd">
<svg version="1.0" xmlns="http://www.w3.org/2000/svg"
 width="444.000000pt" height="134.000000pt" viewBox="3.5 0.0 442.000000 132.200000"
 preserveAspectRatio="xMidYMid meet">

<g transform="translate(0.000000,134.000000) scale(0.100000,-0.100000)"
fill="#000000" stroke="none">
<path d="M70 666 l0 -605 46 -7 c52 -7 270 0 295 10 10 5 37 76 77 209 33 111
75 240 93 287 58 151 150 219 270 201 107 -17 207 -149 394 -521 34 -69 72
-136 83 -150 l20 -25 414 -3 415 -3 37 45 c36 45 161 249 206 336 30 59 133
171 173 188 44 19 146 18 183 -1 16 -9 88 -68 159 -131 187 -167 179 -162 325
-182 168 -22 351 -23 470 -1 111 21 378 78 533 114 l107 25 0 260 0 261 -107
-7 c-59 -4 -198 -23 -308 -42 -110 -19 -257 -40 -328 -46 l-127 -11 -148 73
c-149 75 -350 203 -446 285 l-53 45 -234 0 -234 0 -46 -73 c-25 -39 -77 -126
-114 -192 -60 -105 -207 -300 -261 -346 -20 -16 -204 -89 -226 -89 -7 0 -49
25 -93 55 -77 52 -84 61 -157 182 -66 108 -194 378 -211 444 -5 18 -23 19
-606 19 l-601 0 0 -604z"/>
</g>
</svg>
